<?xml version="1.0" encoding="UTF-8" standalone="no"?>
<!-- Created with Inkscape (http://www.inkscape.org/) -->

<svg
   xmlns:dc="http://purl.org/dc/elements/1.1/"
   xmlns:cc="http://creativecommons.org/ns#"
   xmlns:rdf="http://www.w3.org/1999/02/22-rdf-syntax-ns#"
   xmlns:svg="http://www.w3.org/2000/svg"
   xmlns="http://www.w3.org/2000/svg"
   xmlns:sodipodi="http://sodipodi.sourceforge.net/DTD/sodipodi-0.dtd"
   xmlns:inkscape="http://www.inkscape.org/namespaces/inkscape"
   width="119.26912mm"
   height="39.72897mm"
   viewBox="0 0 119.26912 39.728969"
   version="1.1"
   id="svg8"
   inkscape:version="0.92.1 r15371"
   sodipodi:docname="VG.svg">
  <sodipodi:namedview
     id="base"
     pagecolor="#ffffff"
     bordercolor="#666666"
     borderopacity="1.0"
     inkscape:pageopacity="0.0"
     inkscape:pageshadow="2"
     inkscape:zoom="1.4"
     inkscape:cx="142.3698"
     inkscape:cy="53.774709"
     inkscape:document-units="mm"
     inkscape:current-layer="text4491-3-8"
     showgrid="false"
     inkscape:window-width="1366"
     inkscape:window-height="706"
     inkscape:window-x="-8"
     inkscape:window-y="-8"
     inkscape:window-maximized="1" />
  <defs
     id="defs2" />
  <metadata
     id="metadata5">
    <rdf:RDF>
      <cc:Work
         rdf:about="">
        <dc:format>image/svg+xml</dc:format>
        <dc:type
           rdf:resource="http://purl.org/dc/dcmitype/StillImage" />
        <dc:title></dc:title>
      </cc:Work>
    </rdf:RDF>
  </metadata>
  <g
     id="layer1"
     inkscape:groupmode="layer"
     inkscape:label="Capa 1"
     transform="translate(-6.5159284,0.04820105)">
    <g
       id="g4657">
      <rect
         style="fill:#e6e6e6;fill-opacity:1;stroke:#cccccc;stroke-width:0.7579782;stroke-linejoin:round;stroke-miterlimit:4;stroke-dasharray:none;stroke-opacity:1"
         id="rect4605"
         width="118.51114"
         height="38.970993"
         x="6.8949175"
         y="0.33078805"
         ry="3.2709217" />
      <g
         aria-label="01010110"
         style="font-style:normal;font-variant:normal;font-weight:normal;font-stretch:normal;font-size:24.14643288px;line-height:1.25;font-family:Calibri;-inkscape-font-specification:Calibri;letter-spacing:0px;word-spacing:0px;fill:#cccccc;fill-opacity:1;stroke:none;stroke-width:0.60366082"
         id="text4491-3-8">
        <path
           d="m 11.029201,1.6044041 h 11.71102 q 1.207321,0 2.052447,0.8692716 0.869271,0.8451251 0.869271,2.0765932 V 16.068117 q 0,1.207322 -0.869271,2.076594 -0.845126,0.845125 -2.052447,0.845125 h -11.71102 q -1.2314682,0 -2.0765933,-0.845125 Q 8.1074825,17.275439 8.1074825,16.068117 V 4.5502689 q 0,-1.2314681 0.8451252,-2.0765932 0.8451251,-0.8692716 2.0765933,-0.8692716 z m 12.38712,2.0041539 h -12.38712 q -0.386343,0 -0.6761,0.2897572 Q 10.08749,4.163926 10.08749,4.5502689 V 14.619331 Z m -13.087367,13.40127 h 12.411267 q 0.386343,0 0.651954,-0.265611 0.289757,-0.289757 0.289757,-0.6761 V 5.9990549 Z"
           style="font-style:normal;font-variant:normal;font-weight:normal;font-stretch:normal;font-family:Orbitron;-inkscape-font-specification:Orbitron;fill:#cccccc;fill-opacity:1;stroke-width:0.60366082"
           id="path4675"
           inkscape:connector-curvature="0" />
        <path
           d="m 26.893029,7.0373515 4.563676,-5.4329474 h 2.7044 V 18.989836 H 32.156951 V 3.8258759 q -0.33805,0.4346358 -1.3522,1.617811 -0.990004,1.1831752 -1.328054,1.5936646 z"
           style="font-style:normal;font-variant:normal;font-weight:normal;font-stretch:normal;font-family:Orbitron;-inkscape-font-specification:Orbitron;fill:#cccccc;fill-opacity:1;stroke-width:0.60366082"
           id="path4677"
           inkscape:connector-curvature="0" />
        <path
           d="m 40.599147,1.6044041 h 11.71102 q 1.207322,0 2.052447,0.8692716 0.869272,0.8451251 0.869272,2.0765932 V 16.068117 q 0,1.207322 -0.869272,2.076594 -0.845125,0.845125 -2.052447,0.845125 h -11.71102 q -1.231468,0 -2.076593,-0.845125 -0.845125,-0.869272 -0.845125,-2.076594 V 4.5502689 q 0,-1.2314681 0.845125,-2.0765932 0.845125,-0.8692716 2.076593,-0.8692716 z m 12.38712,2.0041539 h -12.38712 q -0.386343,0 -0.6761,0.2897572 -0.265611,0.2656108 -0.265611,0.6519537 V 14.619331 Z m -13.087366,13.40127 h 12.411266 q 0.386343,0 0.651954,-0.265611 0.289757,-0.289757 0.289757,-0.6761 V 5.9990549 Z"
           style="font-style:normal;font-variant:normal;font-weight:normal;font-stretch:normal;font-family:Orbitron;-inkscape-font-specification:Orbitron;fill:#cccccc;fill-opacity:1;stroke-width:0.60366082"
           id="path4679"
           inkscape:connector-curvature="0" />
        <path
           d="m 56.462977,7.0373515 4.563676,-5.4329474 h 2.704401 V 18.989836 H 61.7269 V 3.8258759 q -0.33805,0.4346358 -1.352201,1.617811 -0.990003,1.1831752 -1.328053,1.5936646 z"
           style="font-style:normal;font-variant:normal;font-weight:normal;font-stretch:normal;font-family:Orbitron;-inkscape-font-specification:Orbitron;fill:#cccccc;fill-opacity:1;stroke-width:0.60366082"
           id="path4681"
           inkscape:connector-curvature="0" />
        <path
           d="m 70.169093,1.6044041 h 11.71102 q 1.207322,0 2.052447,0.8692716 0.869272,0.8451251 0.869272,2.0765932 V 16.068117 q 0,1.207322 -0.869272,2.076594 -0.845125,0.845125 -2.052447,0.845125 h -11.71102 q -1.231468,0 -2.076593,-0.845125 -0.845125,-0.869272 -0.845125,-2.076594 V 4.5502689 q 0,-1.2314681 0.845125,-2.0765932 0.845125,-0.8692716 2.076593,-0.8692716 z M 82.556214,3.608558 H 70.169093 q -0.386342,0 -0.6761,0.2897572 -0.26561,0.2656108 -0.26561,0.6519537 V 14.619331 Z m -13.087367,13.40127 h 12.411266 q 0.386343,0 0.651954,-0.265611 0.289757,-0.289757 0.289757,-0.6761 V 5.9990549 Z"
           style="font-style:normal;font-variant:normal;font-weight:normal;font-stretch:normal;font-family:Orbitron;-inkscape-font-specification:Orbitron;fill:#cccccc;fill-opacity:1;stroke-width:0.60366082"
           id="path4683"
           inkscape:connector-curvature="0" />
        <path
           d="M 86.032924,7.0373515 90.596599,1.6044041 H 93.301 V 18.989836 H 91.296846 V 3.8258759 q -0.33805,0.4346358 -1.3522,1.617811 -0.990004,1.1831752 -1.328054,1.5936646 z"
           style="font-style:normal;font-variant:normal;font-weight:normal;font-stretch:normal;font-family:Orbitron;-inkscape-font-specification:Orbitron;fill:#cccccc;fill-opacity:1;stroke-width:0.60366082"
           id="path4685"
           inkscape:connector-curvature="0" />
        <path
           d="M 95.465121,7.0373515 100.0288,1.6044041 h 2.7044 V 18.989836 h -2.00416 V 3.8258759 q -0.33805,0.4346358 -1.352197,1.617811 -0.990003,1.1831752 -1.328054,1.5936646 z"
           style="font-style:normal;font-variant:normal;font-weight:normal;font-stretch:normal;font-family:Orbitron;-inkscape-font-specification:Orbitron;fill:#cccccc;fill-opacity:1;stroke-width:0.60366082"
           id="path4687"
           inkscape:connector-curvature="0" />
        <path
           d="m 109.17124,1.6044041 h 11.71102 q 1.20733,0 2.05245,0.8692716 0.86927,0.8451251 0.86927,2.0765932 V 16.068117 q 0,1.207322 -0.86927,2.076594 -0.84512,0.845125 -2.05245,0.845125 h -11.71102 q -1.23146,0 -2.07659,-0.845125 -0.84512,-0.869272 -0.84512,-2.076594 V 4.5502689 q 0,-1.2314681 0.84512,-2.0765932 0.84513,-0.8692716 2.07659,-0.8692716 z m 12.38713,2.0041539 h -12.38713 q -0.38634,0 -0.6761,0.2897572 -0.26561,0.2656108 -0.26561,0.6519537 V 14.619331 Z M 108.471,17.009828 h 12.41126 q 0.38635,0 0.65196,-0.265611 0.28976,-0.289757 0.28976,-0.6761 V 5.9990549 Z"
           style="font-style:normal;font-variant:normal;font-weight:normal;font-stretch:normal;font-family:Orbitron;-inkscape-font-specification:Orbitron;fill:#cccccc;fill-opacity:1;stroke-width:0.60366082"
           id="path4689"
           inkscape:connector-curvature="0" />
      </g>
      <g
         aria-label="01000111"
         style="font-style:normal;font-variant:normal;font-weight:normal;font-stretch:normal;font-size:24.14643288px;line-height:1.25;font-family:Calibri;-inkscape-font-specification:Calibri;letter-spacing:0px;word-spacing:0px;fill:#cccccc;fill-opacity:1;stroke:none;stroke-width:0.60366082"
         id="text4491-3-8-5">
        <path
           d="m 11.495719,20.504171 h 11.71102 q 1.207322,0 2.052447,0.869272 0.869272,0.845125 0.869272,2.076593 v 11.517848 q 0,1.207322 -0.869272,2.076594 -0.845125,0.845125 -2.052447,0.845125 h -11.71102 q -1.231468,0 -2.0765929,-0.845125 Q 8.5740009,36.175206 8.5740009,34.967884 V 23.450036 q 0,-1.231468 0.8451252,-2.076593 0.8451249,-0.869272 2.0765929,-0.869272 z m 12.38712,2.004154 h -12.38712 q -0.386343,0 -0.6761,0.289757 -0.265611,0.265611 -0.265611,0.651954 v 10.069062 z m -13.087366,13.40127 h 12.411266 q 0.386343,0 0.651954,-0.265611 0.289757,-0.289757 0.289757,-0.6761 V 24.898822 Z"
           style="font-style:normal;font-variant:normal;font-weight:normal;font-stretch:normal;font-family:Orbitron;-inkscape-font-specification:Orbitron;fill:#cccccc;stroke-width:0.60366082"
           id="path4692"
           inkscape:connector-curvature="0" />
        <path
           d="m 27.359547,25.937118 4.563676,-5.432947 h 2.704401 V 37.889603 H 32.62347 v -15.16396 q -0.33805,0.434636 -1.3522,1.617811 -0.990004,1.183175 -1.328054,1.593664 z"
           style="font-style:normal;font-variant:normal;font-weight:normal;font-stretch:normal;font-family:Orbitron;-inkscape-font-specification:Orbitron;fill:#cccccc;stroke-width:0.60366082"
           id="path4694"
           inkscape:connector-curvature="0" />
        <path
           d="m 41.065666,20.504171 h 11.71102 q 1.207321,0 2.052446,0.869272 0.869272,0.845125 0.869272,2.076593 v 11.517848 q 0,1.207322 -0.869272,2.076594 -0.845125,0.845125 -2.052446,0.845125 h -11.71102 q -1.231468,0 -2.076594,-0.845125 -0.845125,-0.869272 -0.845125,-2.076594 V 23.450036 q 0,-1.231468 0.845125,-2.076593 0.845126,-0.869272 2.076594,-0.869272 z m 12.38712,2.004154 h -12.38712 q -0.386343,0 -0.676101,0.289757 -0.26561,0.265611 -0.26561,0.651954 v 10.069062 z m -13.087367,13.40127 h 12.411267 q 0.386342,0 0.651953,-0.265611 0.289757,-0.289757 0.289757,-0.6761 V 24.898822 Z"
           style="font-style:normal;font-variant:normal;font-weight:normal;font-stretch:normal;font-family:Orbitron;-inkscape-font-specification:Orbitron;fill:#cccccc;stroke-width:0.60366082"
           id="path4696"
           inkscape:connector-curvature="0" />
        <path
           d="m 61.203414,20.504171 h 11.71102 q 1.207322,0 2.052447,0.869272 0.869272,0.845125 0.869272,2.076593 v 11.517848 q 0,1.207322 -0.869272,2.076594 -0.845125,0.845125 -2.052447,0.845125 h -11.71102 q -1.231468,0 -2.076593,-0.845125 -0.845125,-0.869272 -0.845125,-2.076594 V 23.450036 q 0,-1.231468 0.845125,-2.076593 0.845125,-0.869272 2.076593,-0.869272 z m 12.38712,2.004154 h -12.38712 q -0.386343,0 -0.6761,0.289757 -0.265611,0.265611 -0.265611,0.651954 v 10.069062 z m -13.087366,13.40127 h 12.411266 q 0.386343,0 0.651954,-0.265611 0.289757,-0.289757 0.289757,-0.6761 V 24.898822 Z"
           style="font-style:normal;font-variant:normal;font-weight:normal;font-stretch:normal;font-family:Orbitron;-inkscape-font-specification:Orbitron;fill:#cccccc;stroke-width:0.60366082"
           id="path4698"
           inkscape:connector-curvature="0" />
        <path
           d="m 81.341163,20.504171 h 11.71102 q 1.207322,0 2.052447,0.869272 0.869271,0.845125 0.869271,2.076593 v 11.517848 q 0,1.207322 -0.869271,2.076594 -0.845125,0.845125 -2.052447,0.845125 h -11.71102 q -1.231468,0 -2.076593,-0.845125 -0.845125,-0.869272 -0.845125,-2.076594 V 23.450036 q 0,-1.231468 0.845125,-2.076593 0.845125,-0.869272 2.076593,-0.869272 z m 12.38712,2.004154 h -12.38712 q -0.386343,0 -0.6761,0.289757 -0.265611,0.265611 -0.265611,0.651954 v 10.069062 z m -13.087367,13.40127 h 12.411267 q 0.386343,0 0.651954,-0.265611 0.289757,-0.289757 0.289757,-0.6761 V 24.898822 Z"
           style="font-style:normal;font-variant:normal;font-weight:normal;font-stretch:normal;font-family:Orbitron;-inkscape-font-specification:Orbitron;fill:#cccccc;stroke-width:0.60366082"
           id="path4700"
           inkscape:connector-curvature="0" />
        <path
           d="m 97.204985,25.937118 4.563675,-5.432947 h 2.7044 v 17.385432 h -2.00415 v -15.16396 q -0.33805,0.434636 -1.3522,1.617811 -0.99001,1.183175 -1.328056,1.593664 z"
           style="font-style:normal;font-variant:normal;font-weight:normal;font-stretch:normal;font-family:Orbitron;-inkscape-font-specification:Orbitron;fill:#cccccc;stroke-width:0.60366082"
           id="path4702"
           inkscape:connector-curvature="0" />
        <path
           d="m 106.63719,25.937118 4.56368,-5.432947 h 2.7044 v 17.385432 h -2.00416 v -15.16396 q -0.33805,0.434636 -1.3522,1.617811 -0.99,1.183175 -1.32805,1.593664 z"
           style="font-style:normal;font-variant:normal;font-weight:normal;font-stretch:normal;font-family:Orbitron;-inkscape-font-specification:Orbitron;fill:#cccccc;stroke-width:0.60366082"
           id="path4704"
           inkscape:connector-curvature="0" />
        <path
           d="m 116.06939,25.937118 4.56367,-5.432947 h 2.7044 v 17.385432 h -2.00415 v -15.16396 q -0.33805,0.434636 -1.3522,1.617811 -0.99,1.183175 -1.32805,1.593664 z"
           style="font-style:normal;font-variant:normal;font-weight:normal;font-stretch:normal;font-family:Orbitron;-inkscape-font-specification:Orbitron;fill:#cccccc;stroke-width:0.60366082"
           id="path4706"
           inkscape:connector-curvature="0" />
      </g>
      <g
         aria-label="VG"
         transform="scale(1.2431956,0.80437866)"
         style="font-style:normal;font-variant:normal;font-weight:normal;font-stretch:normal;font-size:30.01873779px;line-height:1.25;font-family:Calibri;-inkscape-font-specification:Calibri;letter-spacing:0px;word-spacing:0px;fill:#800000;fill-opacity:1;stroke:none;stroke-width:0.75046849"
         id="text4491-3">
        <path
           d="M 40.948793,33.070784 51.995688,13.828773 h 2.85178 L 42.359673,35.442265 H 39.537912 L 27.020098,13.828773 h 2.85178 z"
           style="font-style:normal;font-variant:normal;font-weight:normal;font-stretch:normal;font-family:Orbitron;-inkscape-font-specification:Orbitron;fill:#800000;stroke-width:0.75046849"
           id="path4709"
           inkscape:connector-curvature="0" />
        <path
           d="m 79.399981,17.431022 v 0.870543 h -2.431518 v -0.870543 q 0,-0.4803 -0.360225,-0.810506 -0.330206,-0.360225 -0.810506,-0.360225 H 61.388738 q -0.4803,0 -0.840525,0.360225 -0.330206,0.330206 -0.330206,0.810506 v 14.408994 q 0,0.4803 0.330206,0.840525 0.360225,0.330206 0.840525,0.330206 h 14.408994 q 0.4803,0 0.810506,-0.330206 0.360225,-0.360225 0.360225,-0.840525 v -5.343335 h -5.343335 v -2.461537 h 7.774853 v 7.804872 q 0,1.500937 -1.050656,2.551593 -1.050656,1.050656 -2.551593,1.050656 H 61.388738 q -1.500937,0 -2.551593,-1.050656 -1.050656,-1.050656 -1.050656,-2.551593 V 17.431022 q 0,-1.500937 1.050656,-2.551593 1.050656,-1.050656 2.551593,-1.050656 h 14.408994 q 1.500937,0 2.551593,1.050656 1.050656,1.050656 1.050656,2.551593 z"
           style="font-style:normal;font-variant:normal;font-weight:normal;font-stretch:normal;font-family:Orbitron;-inkscape-font-specification:Orbitron;fill:#800000;stroke-width:0.75046849"
           id="path4711"
           inkscape:connector-curvature="0" />
      </g>
    </g>
  </g>
</svg>
